<?xml version="1.0" encoding="UTF-8" standalone="no"?>
<svg width="128px" height="128px" viewBox="0 0 128 128" version="1.1" xmlns="http://www.w3.org/2000/svg" xmlns:xlink="http://www.w3.org/1999/xlink">
    <defs>
        <rect id="path-1" x="24" y="0" width="128" height="128"></rect>
        <filter x="-50%" y="-50%" width="200%" height="200%" filterUnits="objectBoundingBox" id="filter-2">
            <feOffset dx="0" dy="1" in="SourceAlpha" result="shadowOffsetOuter1"></feOffset>
            <feGaussianBlur stdDeviation="0" in="shadowOffsetOuter1" result="shadowBlurOuter1"></feGaussianBlur>
            <feColorMatrix values="0 0 0 0 0   0 0 0 0 0   0 0 0 0 0  0 0 0 0.412633039 0" in="shadowBlurOuter1" type="matrix" result="shadowMatrixOuter1"></feColorMatrix>
            <feMerge>
                <feMergeNode in="shadowMatrixOuter1"></feMergeNode>
                <feMergeNode in="SourceGraphic"></feMergeNode>
            </feMerge>
        </filter>
        <path id="path-3" d="M33.5121297,42 C33.214355,42 32.9140407,41.9264049 32.6391229,41.7785635 L21.4284462,35.733997 L10.2184043,41.7785635 C9.9428516,41.9264049 9.64317219,42 9.34539751,42 C8.95619522,42 8.56889767,41.8756048 8.24191695,41.6339784 C7.6641452,41.204131 7.37398949,40.4733904 7.49525807,39.7511165 L9.63555322,26.9468738 L0.565806497,17.8770934 C0.0547007139,17.3658355 -0.128789437,16.5999256 0.0921606408,15.9056569 C0.313110719,15.2081317 0.900406184,14.7020841 1.6077004,14.5952735 L14.1421729,12.7280424 L19.7471938,1.07331597 C20.0621112,0.417473018 20.7141679,0 21.4284462,0 C22.1427244,0 22.795416,0.414867882 23.1103334,1.07331597 L28.7153543,12.7254373 L41.2498268,14.5926684 C41.9564861,14.6968738 42.5444165,15.2061779 42.7653666,15.9030517 C42.9856818,16.5999256 42.8021916,17.3632304 42.2917207,17.8744883 L33.221974,26.9442687 L35.3622692,39.7485114 C35.4835377,40.4714365 35.193382,41.1989207 34.6156103,41.6313733 C34.2879946,41.8782099 33.901332,42 33.5121297,42 L33.5121297,42 Z"></path>
        <filter x="-50%" y="-50%" width="200%" height="200%" filterUnits="objectBoundingBox" id="filter-4">
            <feOffset dx="0" dy="2" in="SourceAlpha" result="shadowOffsetOuter1"></feOffset>
            <feGaussianBlur stdDeviation="0" in="shadowOffsetOuter1" result="shadowBlurOuter1"></feGaussianBlur>
            <feColorMatrix values="0 0 0 0 0   0 0 0 0 0   0 0 0 0 0  0 0 0 0.35 0" in="shadowBlurOuter1" type="matrix" result="shadowMatrixOuter1"></feColorMatrix>
            <feMerge>
                <feMergeNode in="shadowMatrixOuter1"></feMergeNode>
                <feMergeNode in="SourceGraphic"></feMergeNode>
            </feMerge>
        </filter>
        <filter x="-50%" y="-50%" width="200%" height="200%" filterUnits="objectBoundingBox" id="filter-5">
            <feOffset dx="0" dy="1" in="SourceAlpha" result="shadowOffsetOuter1"></feOffset>
            <feGaussianBlur stdDeviation="0" in="shadowOffsetOuter1" result="shadowBlurOuter1"></feGaussianBlur>
            <feColorMatrix values="0 0 0 0 0   0 0 0 0 0   0 0 0 0 0  0 0 0 0.412633039 0" in="shadowBlurOuter1" type="matrix" result="shadowMatrixOuter1"></feColorMatrix>
            <feMerge>
                <feMergeNode in="shadowMatrixOuter1"></feMergeNode>
                <feMergeNode in="SourceGraphic"></feMergeNode>
            </feMerge>
        </filter>
        <path id="path-6" d="M71.3414198,50.4285714 C71.1429034,50.4285714 70.9426938,50.3805093 70.7594153,50.2839598 L63.2856308,46.3364879 L55.8122695,50.2839598 C55.6285677,50.3805093 55.4287815,50.4285714 55.230265,50.4285714 C54.9707968,50.4285714 54.7125984,50.3473337 54.4946113,50.1895369 C54.1094301,49.9088202 53.915993,49.4316019 53.9968387,48.9599128 L55.4237021,40.5979584 L49.3772043,34.6748365 C49.0364671,34.3409538 48.9141404,33.8407677 49.0614404,33.3873677 C49.2087405,32.9318411 49.6002708,32.6013611 50.0718003,32.5316072 L58.4281153,31.312191 L62.1647959,23.700941 C62.3747408,23.2726354 62.8094453,23 63.2856308,23 C63.7618163,23 64.196944,23.2709341 64.4068889,23.700941 L68.1435695,31.3104897 L76.4998846,32.5299059 C76.9709908,32.5979584 77.3629443,32.9305652 77.5102444,33.3856664 C77.6571212,33.8407677 77.5347944,34.3392525 77.1944805,34.6731352 L71.1479827,40.5962571 L72.5748461,48.9582115 C72.6556918,49.4303259 72.4622547,49.9054176 72.0770735,50.1878356 C71.8586631,50.349035 71.600888,50.4285714 71.3414198,50.4285714 L71.3414198,50.4285714 Z"></path>
    </defs>
    <g id="Page-1" stroke="none" stroke-width="1" fill="none" fill-rule="evenodd">
        <g id="Desktop" transform="translate(-81.000000, -55.000000)">
            <g id="V-1-Copy-2" transform="translate(57.000000, 55.000000)">
                <g id="Mask">
                    <use fill="#053058" fill-rule="evenodd" xlink:href="#path-1"></use>
                    <use fill="#24356E" fill-rule="evenodd" xlink:href="#path-1"></use>
                    <use fill="none" xlink:href="#path-1"></use>
                </g>
                <g id="Star" transform="translate(87.000000, 40.000000)" filter="url(#filter-2)">
                    <g id="Imported-Layers">
                        <use stroke="#FBD139" stroke-width="1" fill="#FED13A" fill-rule="evenodd" xlink:href="#path-3"></use>
                        <use stroke="none" fill="none" xlink:href="#path-3"></use>
                    </g>
                </g>
                <g id="Comment" transform="translate(39.000000, 26.000000)">
                    <path d="M88.3329677,62.4109355 L88.2914194,80.3416613 L73.6585968,63.784629 L42.6842742,63.784629 C33.4709194,63.784629 26,56.3137097 26,47.0977581 L26,27.6842742 C26,18.4709194 33.4683226,11 42.6842742,11 L81.7267742,11 C90.940129,11 98.4110484,18.4709194 98.4110484,27.6842742 L98.4110484,47.0977581 C98.4110484,53.9662258 94.2562097,59.8505161 88.3329677,62.4109355 L88.3329677,62.4109355 Z M20.8339194,27.7932742 L20.8339194,41.6964032 L8.38498387,55.6073226 L8.3616129,40.5330484 C3.44591935,38.3907097 0,33.4983871 0,27.7932742 L0,13.903129 C0,6.22187097 6.22187097,0 13.9057258,0 L46.9340968,0 C51.4602742,0 55.4437258,2.19687097 57.9807742,5.5441129 L43.0804839,5.5441129 C30.7925484,5.5441129 20.8339194,15.5027419 20.8339194,27.7932742 L20.8339194,27.7932742 Z" id="Shape" fill="#F35166" filter="url(#filter-4)"></path>
                    <g id="Imported-Layers" filter="url(#filter-5)">
                        <use stroke="#FBD139" stroke-width="1" fill="#FED13A" fill-rule="evenodd" xlink:href="#path-6"></use>
                        <use stroke="none" fill="none" xlink:href="#path-6"></use>
                    </g>
                </g>
            </g>
        </g>
    </g>
</svg>